# xmcd
#
# Track frame offsets: 
#        150
#        16309
#        31290
#        48423
#        68990
#        84589
#        102078
#        114259
#        132065
#        147711
#        163379
#        181630
#        196051
#
# Disc length: 2821 seconds
#
# Revision: 0
# Processed by: cddbd v1.5.2PL0 Copyright (c) Steve Scherf et al.
# Submitted via: ExactAudioCopyFreeDBPlugin 1.0
#
DISCID=aa0b030d
DTITLE=Markus Rill and The Troublemakers - Dream Away
DYEAR=2016
DGENRE=Countryrock
TTITLE0=Something Great
TTITLE1=Walk on Water
TTITLE2=The Pauper's Daughter
TTITLE3=Caroline's Confession
TTITLE4=Poor Man's Set of Wheels
TTITLE5=Losing My Mind
TTITLE6=The Girl in the Polka Dot Dress
TTITLE7=Over Long Ago
TTITLE8=Hands of Mercy
TTITLE9=Some Democracy
TTITLE10=Better
TTITLE11=Roll Along
TTITLE12=Dream Anyway
EXTD=
EXTT0=
EXTT1=
EXTT2=
EXTT3=
EXTT4=
EXTT5=
EXTT6=
EXTT7=
EXTT8=
EXTT9=
EXTT10=
EXTT11=
EXTT12=
PLAYORDER=
